<svg xmlns="http://www.w3.org/2000/svg" version="1.1" width="512" height="512" style=""><rect id="backgroundrect" width="100%" height="100%" x="0" y="0" fill="none" stroke="none"/>
<title/>




<g class="currentLayer" style=""><title>Layer 1</title><g class=""><g id="icomoon-ignore" class="">
</g><path d="M164.15625286102295,280.5892848968506 h-26.241071701049805 v172.1249942779541 h26.241071701049805 c7.2162947177886965,0 13.120535850524902,-5.532589101791382 13.120535850524902,-12.294642448425293 v-147.53570938110352 c0,-6.7620533466339126 -5.904241132736206,-12.294642448425293 -13.120535850524902,-12.294642448425293 z" id="svg_1" class="" fill="#ffffff" fill-opacity="1"/><path d="M347.8437547683716,280.5892848968506 c-7.217114751279354,0 -13.120535850524902,5.532589101791382 -13.120535850524902,12.294642448425293 v147.53570938110352 c0,6.7620533466339126 5.9034210992455485,12.294642448425293 13.120535850524902,12.294642448425293 h26.241071701049805 v-172.1249942779541 h-26.241071701049805 z" id="svg_2" class="" fill="#ffffff" fill-opacity="1"/><path d="M465.9285774230957,256 c0,-108.64237641066312 -93.98813853174448,-196.7142791748047 -209.92857360839844,-196.7142791748047 s-209.92857360839844,88.07190276414156 -209.92857360839844,196.7142791748047 c0,23.59495568883419 4.440481351912021,46.216329378783705 12.569473344802857,67.1779263381958 c-7.9863061655163765,12.757996785700323 -12.569473344802857,27.612998524010184 -12.569473344802857,43.47385569763183 c0,43.35628817921877 34.21507736420631,79.21899178612232 78.72321510314941,85.1849670342207 v-170.3645551623702 c-13.085274410426617,1.754291794359684 -25.283272583961487,6.0866164271235474 -35.98060946959257,12.439872912347317 c-2.210810290813446,-10.265258029282093 -3.380998081982136,-20.887060689568518 -3.380998081982136,-31.764745595812798 c0,-88.27169070392847 76.36561881750822,-159.8303518295288 170.56696605682373,-159.8303518295288 s170.56696605682373,71.55866112560034 170.56696605682373,159.8303518295288 c0,10.878453321397304 -1.160347389280796,21.50332964229584 -3.3703376466035846,31.77242974734306 c-10.701437053084375,-6.357098560988903 -22.90107529360056,-10.69941259074211 -35.991269904971126,-12.455241215407849 v170.37300772905348 c44.50649767196178,-5.967512078404426 78.72321510314941,-41.83021568530798 78.72321510314941,-85.18419861906767 c0,-15.857783513009549 -4.58316717928648,-30.711248421013355 -12.566193210840225,-43.468476791560654 c8.129812026381492,-20.964670620024204 12.566193210840225,-43.589117970585825 12.566193210840225,-67.18484207457304 z" id="svg_3" class="" fill="#ffffff" fill-opacity="1"/></g></g></svg>